<mxfile host="Electron" agent="Mozilla/5.0 (Windows NT 10.0; Win64; x64) AppleWebKit/537.36 (KHTML, like Gecko) draw.io/26.0.16 Chrome/132.0.6834.196 Electron/34.2.0 Safari/537.36" version="26.0.16">
  <diagram name="Page-1" id="EqTDL-Y19tkk3JwQUuEV">
    <mxGraphModel dx="1615" dy="955" grid="1" gridSize="10" guides="1" tooltips="1" connect="1" arrows="1" fold="1" page="1" pageScale="1" pageWidth="3300" pageHeight="4681" math="0" shadow="0">
      <root>
        <mxCell id="0" />
        <mxCell id="1" parent="0" />
        <mxCell id="LP3qV5YlwRThSJtS7ygb-1" value="DroneSubsystem" style="shape=process;whiteSpace=wrap;html=1;backgroundOutline=1;" parent="1" vertex="1">
          <mxGeometry x="490" y="150" width="190" height="160" as="geometry" />
        </mxCell>
        <mxCell id="LP3qV5YlwRThSJtS7ygb-2" value="" style="endArrow=diamondThin;endFill=0;endSize=24;html=1;rounded=0;entryX=1;entryY=0.5;entryDx=0;entryDy=0;exitX=0;exitY=0.5;exitDx=0;exitDy=0;" parent="1" source="LP3qV5YlwRThSJtS7ygb-3" target="LP3qV5YlwRThSJtS7ygb-1" edge="1">
          <mxGeometry width="160" relative="1" as="geometry">
            <mxPoint x="760" y="190" as="sourcePoint" />
            <mxPoint x="920" y="320" as="targetPoint" />
          </mxGeometry>
        </mxCell>
        <mxCell id="LP3qV5YlwRThSJtS7ygb-3" value="DroneController" style="shape=process;whiteSpace=wrap;html=1;backgroundOutline=1;" parent="1" vertex="1">
          <mxGeometry x="750" y="150" width="190" height="160" as="geometry" />
        </mxCell>
        <mxCell id="LP3qV5YlwRThSJtS7ygb-4" value="DroneRequestHandler" style="shape=process;whiteSpace=wrap;html=1;backgroundOutline=1;" parent="1" vertex="1">
          <mxGeometry x="490" y="460" width="190" height="160" as="geometry" />
        </mxCell>
        <mxCell id="LP3qV5YlwRThSJtS7ygb-5" value="FireEventHandler" style="shape=process;whiteSpace=wrap;html=1;backgroundOutline=1;" parent="1" vertex="1">
          <mxGeometry x="750" y="460" width="190" height="160" as="geometry" />
        </mxCell>
        <mxCell id="LP3qV5YlwRThSJtS7ygb-7" value="Scheduler" style="shape=process;whiteSpace=wrap;html=1;backgroundOutline=1;" parent="1" vertex="1">
          <mxGeometry x="230" y="460" width="190" height="160" as="geometry" />
        </mxCell>
        <mxCell id="LP3qV5YlwRThSJtS7ygb-8" value="" style="endArrow=diamondThin;endFill=0;endSize=24;html=1;rounded=0;entryX=1;entryY=0.5;entryDx=0;entryDy=0;exitX=0;exitY=0.5;exitDx=0;exitDy=0;" parent="1" source="LP3qV5YlwRThSJtS7ygb-4" target="LP3qV5YlwRThSJtS7ygb-7" edge="1">
          <mxGeometry width="160" relative="1" as="geometry">
            <mxPoint x="460" y="500" as="sourcePoint" />
            <mxPoint x="620" y="500" as="targetPoint" />
          </mxGeometry>
        </mxCell>
        <mxCell id="LP3qV5YlwRThSJtS7ygb-9" value="" style="endArrow=diamondThin;endFill=0;endSize=24;html=1;rounded=0;entryX=0.5;entryY=1;entryDx=0;entryDy=0;exitX=0.25;exitY=1;exitDx=0;exitDy=0;" parent="1" source="LP3qV5YlwRThSJtS7ygb-5" target="LP3qV5YlwRThSJtS7ygb-7" edge="1">
          <mxGeometry width="160" relative="1" as="geometry">
            <mxPoint x="460" y="620" as="sourcePoint" />
            <mxPoint x="620" y="620" as="targetPoint" />
            <Array as="points">
              <mxPoint x="798" y="680" />
              <mxPoint x="325" y="680" />
            </Array>
          </mxGeometry>
        </mxCell>
        <mxCell id="LP3qV5YlwRThSJtS7ygb-10" value="" style="endArrow=classic;html=1;rounded=0;exitX=0.25;exitY=1;exitDx=0;exitDy=0;entryX=0.25;entryY=0;entryDx=0;entryDy=0;dashed=1;" parent="1" source="LP3qV5YlwRThSJtS7ygb-1" target="LP3qV5YlwRThSJtS7ygb-4" edge="1">
          <mxGeometry width="50" height="50" relative="1" as="geometry">
            <mxPoint x="520" y="370" as="sourcePoint" />
            <mxPoint x="570" y="320" as="targetPoint" />
          </mxGeometry>
        </mxCell>
        <mxCell id="LP3qV5YlwRThSJtS7ygb-11" value="1. request for instruction (e.g. arrives at desination)" style="edgeLabel;html=1;align=center;verticalAlign=middle;resizable=0;points=[];" parent="LP3qV5YlwRThSJtS7ygb-10" vertex="1" connectable="0">
          <mxGeometry x="-0.4611" y="-1" relative="1" as="geometry">
            <mxPoint as="offset" />
          </mxGeometry>
        </mxCell>
        <mxCell id="LP3qV5YlwRThSJtS7ygb-12" value="" style="endArrow=classic;html=1;rounded=0;exitX=0.75;exitY=0;exitDx=0;exitDy=0;entryX=0.75;entryY=1;entryDx=0;entryDy=0;dashed=1;" parent="1" source="LP3qV5YlwRThSJtS7ygb-4" target="LP3qV5YlwRThSJtS7ygb-1" edge="1">
          <mxGeometry width="50" height="50" relative="1" as="geometry">
            <mxPoint x="548" y="470" as="sourcePoint" />
            <mxPoint x="548" y="280" as="targetPoint" />
          </mxGeometry>
        </mxCell>
        <mxCell id="LP3qV5YlwRThSJtS7ygb-13" value="2. instruction (e.g. release agent)" style="edgeLabel;html=1;align=center;verticalAlign=middle;resizable=0;points=[];" parent="LP3qV5YlwRThSJtS7ygb-12" vertex="1" connectable="0">
          <mxGeometry x="-0.4611" y="-1" relative="1" as="geometry">
            <mxPoint as="offset" />
          </mxGeometry>
        </mxCell>
        <mxCell id="LP3qV5YlwRThSJtS7ygb-14" value="" style="endArrow=classic;html=1;rounded=0;exitX=0.25;exitY=0;exitDx=0;exitDy=0;entryX=0.25;entryY=1;entryDx=0;entryDy=0;dashed=1;" parent="1" source="LP3qV5YlwRThSJtS7ygb-5" target="LP3qV5YlwRThSJtS7ygb-3" edge="1">
          <mxGeometry width="50" height="50" relative="1" as="geometry">
            <mxPoint x="780" y="480" as="sourcePoint" />
            <mxPoint x="780" y="290" as="targetPoint" />
          </mxGeometry>
        </mxCell>
        <mxCell id="LP3qV5YlwRThSJtS7ygb-15" value="2. command" style="edgeLabel;html=1;align=center;verticalAlign=middle;resizable=0;points=[];" parent="LP3qV5YlwRThSJtS7ygb-14" vertex="1" connectable="0">
          <mxGeometry x="-0.4611" y="-1" relative="1" as="geometry">
            <mxPoint y="-89" as="offset" />
          </mxGeometry>
        </mxCell>
        <mxCell id="LP3qV5YlwRThSJtS7ygb-17" value="FireIncidentSubsystem" style="shape=process;whiteSpace=wrap;html=1;backgroundOutline=1;" parent="1" vertex="1">
          <mxGeometry x="750" y="760" width="190" height="160" as="geometry" />
        </mxCell>
        <mxCell id="LP3qV5YlwRThSJtS7ygb-18" value="" style="endArrow=classic;html=1;rounded=0;exitX=0.5;exitY=0;exitDx=0;exitDy=0;entryX=0.5;entryY=1;entryDx=0;entryDy=0;dashed=1;" parent="1" source="LP3qV5YlwRThSJtS7ygb-17" target="LP3qV5YlwRThSJtS7ygb-5" edge="1">
          <mxGeometry width="50" height="50" relative="1" as="geometry">
            <mxPoint x="880" y="840" as="sourcePoint" />
            <mxPoint x="880" y="650" as="targetPoint" />
            <Array as="points" />
          </mxGeometry>
        </mxCell>
        <mxCell id="LP3qV5YlwRThSJtS7ygb-19" value="1. fire event" style="edgeLabel;html=1;align=center;verticalAlign=middle;resizable=0;points=[];" parent="LP3qV5YlwRThSJtS7ygb-18" vertex="1" connectable="0">
          <mxGeometry x="-0.4611" y="-1" relative="1" as="geometry">
            <mxPoint x="-4" y="-2" as="offset" />
          </mxGeometry>
        </mxCell>
        <mxCell id="LtiYGIQ98a5orspmY1AE-2" value="DroneSubsystem takes care of flying mechanisms, and agent control. It can block to receive a message because when it does so, it&#39;s not doing anything anyway (waiting for further instruction)" style="shape=note;whiteSpace=wrap;html=1;backgroundOutline=1;darkOpacity=0.05;size=16;" parent="1" vertex="1">
          <mxGeometry x="140" y="160" width="200" height="120" as="geometry" />
        </mxCell>
        <mxCell id="LtiYGIQ98a5orspmY1AE-3" value="DroneController just tries to receive SERVICE_ZONE requests (similar to drone manager)" style="shape=note;whiteSpace=wrap;html=1;backgroundOutline=1;darkOpacity=0.05;size=16;" parent="1" vertex="1">
          <mxGeometry x="140" y="290" width="200" height="80" as="geometry" />
        </mxCell>
        <mxCell id="LtiYGIQ98a5orspmY1AE-4" value="FireEventHandler tries to receive a fire event from FireIncidentSubsystem and then schedules drones to service it" style="shape=note;whiteSpace=wrap;html=1;backgroundOutline=1;darkOpacity=0.05;size=16;" parent="1" vertex="1">
          <mxGeometry x="980" y="320" width="200" height="90" as="geometry" />
        </mxCell>
        <mxCell id="LtiYGIQ98a5orspmY1AE-5" value="DroneRequestHandler only exists to give drones further instruction upon request" style="shape=note;whiteSpace=wrap;html=1;backgroundOutline=1;darkOpacity=0.05;size=16;" parent="1" vertex="1">
          <mxGeometry x="980" y="530" width="200" height="80" as="geometry" />
        </mxCell>
        <mxCell id="dlU8C2CYZlVRx-6Mo9vs-2" value="" style="endArrow=classic;html=1;rounded=0;exitX=0.75;exitY=1;exitDx=0;exitDy=0;entryX=0.75;entryY=0;entryDx=0;entryDy=0;dashed=1;" edge="1" parent="1" source="LP3qV5YlwRThSJtS7ygb-3" target="LP3qV5YlwRThSJtS7ygb-5">
          <mxGeometry width="50" height="50" relative="1" as="geometry">
            <mxPoint x="880" y="350" as="sourcePoint" />
            <mxPoint x="880" y="500" as="targetPoint" />
          </mxGeometry>
        </mxCell>
        <mxCell id="dlU8C2CYZlVRx-6Mo9vs-3" value="3. ack/response" style="edgeLabel;html=1;align=center;verticalAlign=middle;resizable=0;points=[];" vertex="1" connectable="0" parent="dlU8C2CYZlVRx-6Mo9vs-2">
          <mxGeometry x="-0.4611" y="-1" relative="1" as="geometry">
            <mxPoint y="10" as="offset" />
          </mxGeometry>
        </mxCell>
        <mxCell id="dlU8C2CYZlVRx-6Mo9vs-6" value="FireStatusMonitor" style="shape=process;whiteSpace=wrap;html=1;backgroundOutline=1;" vertex="1" parent="1">
          <mxGeometry x="490" y="760" width="190" height="160" as="geometry" />
        </mxCell>
        <mxCell id="dlU8C2CYZlVRx-6Mo9vs-7" value="" style="endArrow=classic;html=1;rounded=0;entryX=0.5;entryY=0;entryDx=0;entryDy=0;exitX=0.5;exitY=1;exitDx=0;exitDy=0;dashed=1;" edge="1" parent="1" source="LP3qV5YlwRThSJtS7ygb-4" target="dlU8C2CYZlVRx-6Mo9vs-6">
          <mxGeometry width="50" height="50" relative="1" as="geometry">
            <mxPoint x="893" y="630" as="sourcePoint" />
            <mxPoint x="730" y="620" as="targetPoint" />
          </mxGeometry>
        </mxCell>
        <mxCell id="dlU8C2CYZlVRx-6Mo9vs-8" value="fire extinguished" style="edgeLabel;html=1;align=center;verticalAlign=middle;resizable=0;points=[];" vertex="1" connectable="0" parent="dlU8C2CYZlVRx-6Mo9vs-7">
          <mxGeometry x="0.4161" relative="1" as="geometry">
            <mxPoint as="offset" />
          </mxGeometry>
        </mxCell>
        <mxCell id="dlU8C2CYZlVRx-6Mo9vs-10" value="FireEventHandler can also send a request to get all drone info" style="shape=note;whiteSpace=wrap;html=1;backgroundOutline=1;darkOpacity=0.05;size=16;" vertex="1" parent="1">
          <mxGeometry x="980" y="430" width="200" height="90" as="geometry" />
        </mxCell>
        <mxCell id="dlU8C2CYZlVRx-6Mo9vs-11" value="" style="endArrow=diamondThin;endFill=0;endSize=24;html=1;rounded=0;entryX=0;entryY=0.5;entryDx=0;entryDy=0;exitX=1;exitY=0.5;exitDx=0;exitDy=0;" edge="1" parent="1" source="dlU8C2CYZlVRx-6Mo9vs-6" target="LP3qV5YlwRThSJtS7ygb-17">
          <mxGeometry width="160" relative="1" as="geometry">
            <mxPoint x="490" y="530" as="sourcePoint" />
            <mxPoint x="650" y="530" as="targetPoint" />
          </mxGeometry>
        </mxCell>
      </root>
    </mxGraphModel>
  </diagram>
</mxfile>
